<?xml version="1.0" encoding="UTF-8" standalone="no"?>
<svg
   xmlns:dc="http://purl.org/dc/elements/1.1/"
   xmlns:cc="http://creativecommons.org/ns#"
   xmlns:rdf="http://www.w3.org/1999/02/22-rdf-syntax-ns#"
   xmlns:svg="http://www.w3.org/2000/svg"
   xmlns="http://www.w3.org/2000/svg"
   xml:space="preserve"
   style="enable-background:new 0 0 15 15;"
   viewBox="0 0 15 15"
   height="15px"
   width="15px"
   y="0px"
   x="0px"
   id="Layer_1"
   version="1.1"><metadata
     id="metadata9"><rdf:RDF><cc:Work
         rdf:about=""><dc:format>image/svg+xml</dc:format><dc:type
           rdf:resource="http://purl.org/dc/dcmitype/StillImage" /><dc:title></dc:title></cc:Work></rdf:RDF></metadata><defs
     id="defs7" /><path
     id="rect5285"
     d="M 4.5,1 C 4.223,1 4,1.223 4,1.5 4,1.777 4.223,2 4.5,2 L 5,2 C 7,4 3,3 3,6 3,9 5,11 6,13 L 5.5,13 C 5.223,13 5,13.223 5,13.5 5,13.777 5.223,14 5.5,14 l 4,0 C 9.777,14 10,13.777 10,13.5 10,13.223 9.777,13 9.5,13 L 9,13 C 10,11 12,9 12,6 12,3 8,4 10,2 l 0.5,0 C 10.777,2 11,1.777 11,1.5 11,1.223 10.777,1 10.5,1 Z"
     style="opacity:0.98999999;fill:#000000;fill-opacity:1;stroke:none;stroke-width:1.25;stroke-linecap:round;stroke-linejoin:round;stroke-miterlimit:4;stroke-dasharray:none;stroke-dashoffset:0;stroke-opacity:1" /></svg>