<?xml version="1.0" encoding="UTF-8" standalone="no"?>
<svg
   xmlns:dc="http://purl.org/dc/elements/1.1/"
   xmlns:cc="http://creativecommons.org/ns#"
   xmlns:rdf="http://www.w3.org/1999/02/22-rdf-syntax-ns#"
   xmlns:svg="http://www.w3.org/2000/svg"
   xmlns="http://www.w3.org/2000/svg"
   xml:space="preserve"
   viewBox="0 0 11 11"
   height="11"
   width="11"
   y="0px"
   x="0px"
   id="Layer_1"
   version="1.1"><metadata
     id="metadata9"><rdf:RDF><cc:Work
         rdf:about=""><dc:format>image/svg+xml</dc:format><dc:type
           rdf:resource="http://purl.org/dc/dcmitype/StillImage" /><dc:title></dc:title></cc:Work></rdf:RDF></metadata><defs
     id="defs7" /><path
     id="rect5285"
     d="M 3.5158898,1 C 3.2388898,1 3,1.223 3,1.5 3,1.777 3.223,2 3.5,2 L 4,2 C 6,4 3,3 3,5 3,7.5 4,8 4.5,9 4.2644869,9 4,9.1723337 4,9.515625 4,9.8589163 4.2464631,10 4.4682203,10 l 2.0476691,0 C 6.7928894,10 7,9.777 7,9.5 7,9.1807573 6.6843071,9 6.5,9 6.9449157,8 8,7.5 8,5 8,3 5.0000003,4 7,2 L 7.5476695,2 C 7.777,2 8,1.777 8,1.5 8,1.223 7.8246695,1 7.5476695,1 Z"
     style="opacity:0.98999999;fill:#000000;fill-opacity:1;stroke:none;stroke-width:1.25;stroke-linecap:round;stroke-linejoin:round;stroke-miterlimit:4;stroke-dasharray:none;stroke-dashoffset:0;stroke-opacity:1" /></svg>