<?xml version="1.0" encoding="UTF-8" standalone="no"?>
<svg
   xmlns:dc="http://purl.org/dc/elements/1.1/"
   xmlns:cc="http://creativecommons.org/ns#"
   xmlns:rdf="http://www.w3.org/1999/02/22-rdf-syntax-ns#"
   xmlns:svg="http://www.w3.org/2000/svg"
   xmlns="http://www.w3.org/2000/svg"
   xml:space="preserve"
   viewBox="0 0 11 11"
   height="11"
   width="11"
   y="0px"
   x="0px"
   id="Layer_1"
   version="1.1"><metadata
     id="metadata9"><rdf:RDF><cc:Work
         rdf:about=""><dc:format>image/svg+xml</dc:format><dc:type
           rdf:resource="http://purl.org/dc/dcmitype/StillImage" /><dc:title></dc:title></cc:Work></rdf:RDF></metadata><defs
     id="defs7" /><path
     id="path8218"
     d="M 4.5 1.9921875 C 4.3674005 1.992213 4.2402403 2.0449035 4.1464844 2.1386719 L 3.1464844 3.1386719 C 3.0527163 3.2324278 3.0000255 3.359588 3 3.4921875 L 3 4.2851562 L 1.1464844 6.1386719 C 1.0527163 6.2324278 1.0000255 6.359588 1 6.4921875 L 1 8.4921875 C 0.990437 9.1683488 2.0095626 9.1683488 2 8.4921875 L 2 6.6992188 L 3.8535156 4.8457031 C 3.9472837 4.7519472 3.9999745 4.624787 4 4.4921875 L 4 3.6992188 L 4.7070312 2.9921875 L 5.7929688 3 L 6.6464844 3.8535156 C 6.7402403 3.9472837 6.8674005 3.9999745 7 4 L 8 3.9921875 L 8 5.1171875 C 8.0001328 5.1944845 8.0181834 5.2706983 8.0527344 5.3398438 L 9 7.234375 L 9 8.4921875 C 8.99044 9.1683488 10.009563 9.1683488 10 8.4921875 L 10 7.1171875 C 9.9998671 7.0398893 9.9818164 6.9636767 9.9472656 6.8945312 L 9 5 L 9 3.4921875 C 8.9999724 3.2160566 8.7761309 2.9922151 8.5 2.9921875 L 7.2070312 3 L 6.3535156 2.1464844 C 6.2597597 2.0527163 6.1325995 2.0000255 6 2 L 4.5 1.9921875 z M 5.5585938 6 A 2.5 3 0 0 0 4.25 6.4023438 A 2.5 3 0 0 0 3 9 L 5.5 9 L 8 9 A 2.5 3 0 0 0 6.75 6.4023438 A 2.5 3 0 0 0 5.5585938 6 z "
     style="color:#000000;font-style:normal;font-variant:normal;font-weight:normal;font-stretch:normal;font-size:medium;line-height:normal;font-family:sans-serif;text-indent:0;text-align:start;text-decoration:none;text-decoration-line:none;text-decoration-style:solid;text-decoration-color:#000000;letter-spacing:normal;word-spacing:normal;text-transform:none;direction:ltr;block-progression:tb;writing-mode:lr-tb;baseline-shift:baseline;text-anchor:start;white-space:normal;clip-rule:nonzero;display:inline;overflow:visible;visibility:visible;opacity:1;isolation:auto;mix-blend-mode:normal;color-interpolation:sRGB;color-interpolation-filters:linearRGB;solid-color:#000000;solid-opacity:1;fill:#000000;fill-opacity:1;fill-rule:evenodd;stroke:none;stroke-width:1px;stroke-linecap:round;stroke-linejoin:round;stroke-miterlimit:4;stroke-dasharray:none;stroke-dashoffset:0;stroke-opacity:1;color-rendering:auto;image-rendering:auto;shape-rendering:auto;text-rendering:auto;enable-background:accumulate" /></svg>