<?xml version="1.0" encoding="UTF-8" standalone="no"?>
<svg
   xmlns:dc="http://purl.org/dc/elements/1.1/"
   xmlns:cc="http://creativecommons.org/ns#"
   xmlns:rdf="http://www.w3.org/1999/02/22-rdf-syntax-ns#"
   xmlns:svg="http://www.w3.org/2000/svg"
   xmlns="http://www.w3.org/2000/svg"
   xml:space="preserve"
   style="enable-background:new 0 0 15 15;"
   viewBox="0 0 15 15"
   height="15px"
   width="15px"
   y="0px"
   x="0px"
   id="Layer_1"
   version="1.1"><metadata
     id="metadata9"><rdf:RDF><cc:Work
         rdf:about=""><dc:format>image/svg+xml</dc:format><dc:type
           rdf:resource="http://purl.org/dc/dcmitype/StillImage" /><dc:title></dc:title></cc:Work></rdf:RDF></metadata><defs
     id="defs7" /><path
     id="rect5302"
     d="M 5 1 C 4.8350165 1 4.6857281 1.0489586 4.5488281 1.1191406 L 4.5488281 1.1074219 L 1 3.4511719 L 4.4902344 5.8613281 L 4.4902344 5.8417969 C 4.6414435 5.9335119 4.8095155 6 5 6 L 7 6 L 7 12 L 6 12 C 5.446 12 5 12.446 5 13 C 5 13.554 5.446 14 6 14 L 10 14 C 10.554 14 11 13.554 11 13 C 11 12.446 10.554 12 10 12 L 9 12 L 9 6 L 12 6 C 12.554 6 13 5.554 13 5 L 13 2 C 13 1.446 12.554 1 12 1 L 5 1 z "
     style="opacity:1;fill:#000000;fill-opacity:1;stroke:none;stroke-width:1;stroke-linecap:round;stroke-linejoin:round;stroke-miterlimit:4;stroke-dasharray:none;stroke-dashoffset:0;stroke-opacity:1" /></svg>